<?xml version="1.0" encoding="utf-8"?>
<!-- Generator: Adobe Illustrator 26.3.1, SVG Export Plug-In . SVG Version: 6.00 Build 0)  -->
<svg version="1.1" id="Layer_1" xmlns="http://www.w3.org/2000/svg" xmlns:xlink="http://www.w3.org/1999/xlink" x="0px" y="0px"
	 viewBox="0 0 21 21" style="enable-background:new 0 0 21 21;" xml:space="preserve">
<style type="text/css">
	.st0{fill:#1A2E59;}
</style>
<g>
	<g>
		<path class="st0" d="M15.35,13.85h-4.03c-0.5,0-0.91,0.41-0.91,0.91v1.81c0,0.49,0.4,0.91,0.91,0.91h4.03
			c0.5,0,0.91-0.41,0.91-0.91v-1.81C16.26,14.26,15.85,13.85,15.35,13.85z M11.01,16.57v-1.81c0-0.17,0.14-0.31,0.3-0.31h1.71v2.42
			h-1.71C11.15,16.88,11.01,16.73,11.01,16.57z M15.65,16.57c0,0.16-0.13,0.31-0.3,0.31h-1.71v-2.42h1.71c0.17,0,0.3,0.13,0.3,0.31
			V16.57z"/>
	</g>
	<g>
		<path class="st0" d="M20.19,19.9H18.3v-7.06c0.09,0.02,0.18,0.03,0.28,0.03c1.05,0,1.91-0.87,1.92-1.96l0,0c0-0.01,0-0.02,0-0.03
			s0-0.01,0-0.02c0-0.03-0.01-0.05-0.02-0.08c0-0.01,0-0.02-0.01-0.03c-0.01-0.03-0.03-0.06-0.05-0.08l0-0.01l0,0l-2.2-2.17
			C18.15,8.43,18.08,8.4,18,8.4h-2.42h-2.55h-0.4c-0.17,0-0.3,0.14-0.3,0.31c0,0.17,0.13,0.31,0.3,0.31h0.18l0.51,1.56H10.5l0,0
			H7.69L8.2,9.01h0.18c0.17,0,0.3-0.13,0.3-0.31c0-0.16-0.13-0.31-0.3-0.31h-0.4H5.43H3c-0.08,0-0.16,0.03-0.21,0.09l-2.2,2.17l0,0
			c0,0,0,0.01,0,0.01c-0.02,0.02-0.04,0.04-0.05,0.08c0,0.01-0.01,0.02-0.01,0.03c-0.01,0.03-0.01,0.05-0.01,0.08
			c0,0.01,0,0.01,0,0.02c0,0.01,0,0.02,0,0.03l0,0c0.02,1.08,0.87,1.96,1.92,1.96c0.09,0,0.18-0.01,0.27-0.03v7.06H0.8
			c-0.16,0-0.3,0.13-0.3,0.31c0,0.16,0.13,0.3,0.3,0.3H3h2.05h3.63H18h2.19c0.17,0,0.3-0.13,0.3-0.3
			C20.5,20.04,20.36,19.9,20.19,19.9z M18.58,12.26c-0.62,0-1.15-0.46-1.28-1.07h2.56C19.73,11.8,19.2,12.26,18.58,12.26z
			 M19.46,10.58h-2.32l-1-1.56h1.74L19.46,10.58z M15.41,9.02l1,1.56h-2.45l-0.51-1.56C13.44,9.02,15.41,9.02,15.41,9.02z
			 M16.63,11.19c-0.13,0.61-0.66,1.07-1.28,1.07c-0.62,0-1.15-0.46-1.28-1.07H16.63z M13.4,11.19c-0.13,0.61-0.66,1.07-1.28,1.07
			s-1.15-0.46-1.28-1.07H13.4z M7.05,10.58H4.59l1-1.56h1.96L7.05,10.58z M6.93,11.19c-0.13,0.61-0.66,1.07-1.28,1.07
			S4.5,11.8,4.37,11.19H6.93z M10.17,11.19c-0.13,0.61-0.66,1.07-1.28,1.07c-0.62,0-1.15-0.46-1.28-1.07H10.17z M3.13,9.02h1.74
			l-1,1.56H1.55L3.13,9.02z M1.14,11.19H3.7c-0.13,0.61-0.66,1.07-1.28,1.07C1.8,12.26,1.27,11.8,1.14,11.19z M8.38,16.88H5.35
			v-2.12c0-0.17,0.13-0.31,0.3-0.31h2.42c0.16,0,0.3,0.13,0.3,0.31L8.38,16.88L8.38,16.88z M5.35,19.9v-2.42h3.03v2.42H5.35z
			 M8.99,19.9v-5.14c0-0.5-0.41-0.91-0.91-0.91H5.66c-0.5,0-0.91,0.41-0.91,0.91v5.14H3.3v-7.26c0.3-0.16,0.55-0.4,0.73-0.69
			c0.34,0.55,0.93,0.92,1.61,0.92s1.28-0.37,1.62-0.92c0.34,0.55,0.93,0.92,1.61,0.92c0.68,0,1.28-0.37,1.62-0.92
			c0.34,0.55,0.93,0.92,1.61,0.92c0.68,0,1.28-0.37,1.61-0.92c0.34,0.55,0.94,0.92,1.62,0.92c0.68,0,1.27-0.37,1.61-0.92
			c0.18,0.3,0.43,0.53,0.73,0.69v7.26H8.99z"/>
	</g>
	<g>
		<path class="st0" d="M10.5,10.06c0.08,0,0.17-0.04,0.23-0.11c0.12-0.15,3.07-3.66,3.07-6.13c0-1.83-1.48-3.32-3.3-3.32
			c-1.83,0-3.3,1.49-3.3,3.32c0,2.47,2.94,5.98,3.07,6.13C10.33,10.02,10.41,10.06,10.5,10.06z M10.5,1.12
			c1.48,0,2.69,1.21,2.69,2.7c0,1.87-2,4.58-2.69,5.44C9.81,8.4,7.8,5.7,7.8,3.82C7.8,2.33,9.01,1.12,10.5,1.12z"/>
	</g>
	<g>
		<path class="st0" d="M12.01,3.85c0-0.84-0.68-1.52-1.51-1.52c-0.84,0-1.52,0.68-1.52,1.52c0,0.84,0.68,1.51,1.52,1.51
			C11.33,5.36,12.01,4.69,12.01,3.85z M9.59,3.85c0-0.5,0.41-0.91,0.91-0.91c0.5,0,0.9,0.4,0.9,0.91c0,0.49-0.4,0.91-0.9,0.91
			C10,4.76,9.59,4.34,9.59,3.85z"/>
	</g>
</g>
</svg>
