<?xml version="1.0" encoding="utf-8"?>
<!-- Generator: Adobe Illustrator 26.3.1, SVG Export Plug-In . SVG Version: 6.00 Build 0)  -->
<svg version="1.1" id="Layer_1" xmlns="http://www.w3.org/2000/svg" xmlns:xlink="http://www.w3.org/1999/xlink" x="0px" y="0px"
	 viewBox="0 0 21 21" style="enable-background:new 0 0 21 21;" xml:space="preserve">
<style type="text/css">
	.st0{fill:#1A2E59;}
</style>
<g>
	<g>
		<g>
			<path class="st0" d="M18.69,10.25c-1.58-2.47-1.68-3.17-1.69-3.2C16.29,0.98,11.38,0.5,9.89,0.5c-0.14,0-0.26,0.01-0.35,0.01
				c-0.06,0-0.1,0.01-0.13,0.01c-0.74,0-7.25,0.18-7.29,6.67c0,0.01,0,0.04,0,0.04c0,3.87,1.1,5.22,1.98,6.29
				c0.32,0.39,0.59,0.72,0.77,1.12c0.71,1.56,0.6,3.21,0.48,4.06c-0.06,0.44,0.14,0.87,0.52,1.09c0.84,0.49,2.17,0.73,3.51,0.73
				c1.35,0,2.7-0.25,3.54-0.75c0.36-0.21,0.58-0.59,0.58-1.02l-0.01-2.28c0.02-0.03,0.12-0.07,0.32-0.07c0.03,0,0.04,0,0.06,0
				c0,0,0.1,0.01,0.26,0.01c0.99,0,2.68-0.15,2.87-1.16c0.16-0.86,0.06-2.34,0-2.91c0.3-0.12,0.85-0.37,1.34-0.65
				c0.37-0.22,0.49-0.48,0.53-0.67C18.93,10.63,18.73,10.31,18.69,10.25z M18.26,10.89c-0.02,0.1-0.11,0.19-0.24,0.26
				c-0.66,0.39-1.46,0.7-1.47,0.7c-0.13,0.06-0.21,0.18-0.19,0.32c0,0.02,0.21,2,0.03,2.97c-0.08,0.4-1,0.66-2.28,0.66
				c-0.14,0-0.22,0-0.22,0c-0.01,0-0.04,0-0.1,0c-0.68,0-0.92,0.35-0.92,0.68v2.28c0,0.21-0.1,0.4-0.28,0.5
				c-1.49,0.88-4.92,0.89-6.44,0.02c-0.16-0.09-0.25-0.28-0.22-0.48c0.14-0.91,0.24-2.7-0.53-4.4c-0.21-0.47-0.52-0.85-0.85-1.24
				c-0.82-1.01-1.84-2.26-1.84-5.92c0,0,0-0.03,0-0.04C2.76,1.41,8.3,1.12,9.41,1.12c0.04,0,0.09,0,0.15-0.01c0.09,0,0.2,0,0.33,0
				c1.36,0,5.86,0.43,6.51,5.99c0.01,0.13,0.13,0.88,1.79,3.48c0,0,0.01,0,0.01,0.01C18.22,10.63,18.29,10.77,18.26,10.89z"/>
		</g>
	</g>
	<g>
		<path class="st0" d="M7.39,9.32h1.28v1.28c0,0.46,0.37,0.84,0.83,0.84h0.79c0.46,0,0.83-0.38,0.83-0.84V9.32h1.28
			c0.46,0,0.83-0.37,0.83-0.83V7.7c0-0.46-0.37-0.83-0.83-0.83h-1.28V5.59c0-0.46-0.37-0.84-0.83-0.84H9.5
			c-0.46,0-0.83,0.38-0.83,0.84v1.28H7.39c-0.46,0-0.83,0.37-0.83,0.83v0.79C6.56,8.95,6.93,9.32,7.39,9.32z M7.16,7.7
			c0-0.13,0.11-0.23,0.23-0.23h1.58c0.17,0,0.31-0.14,0.31-0.3V5.59c0-0.13,0.1-0.23,0.23-0.23h0.79c0.13,0,0.23,0.1,0.23,0.23v1.58
			c0,0.16,0.14,0.3,0.3,0.3h1.58c0.13,0,0.23,0.1,0.23,0.23v0.79c0,0.13-0.1,0.23-0.23,0.23h-1.58c-0.17,0-0.3,0.14-0.3,0.3v1.58
			c0,0.13-0.1,0.23-0.23,0.23H9.5c-0.13,0-0.23-0.1-0.23-0.23V9.01c0-0.16-0.14-0.3-0.31-0.3H7.39c-0.12,0-0.23-0.1-0.23-0.23
			L7.16,7.7L7.16,7.7z"/>
	</g>
</g>
</svg>
