<?xml version="1.0" encoding="utf-8"?>
<!-- Generator: Adobe Illustrator 26.3.1, SVG Export Plug-In . SVG Version: 6.00 Build 0)  -->
<svg version="1.1" id="Layer_1" xmlns="http://www.w3.org/2000/svg" xmlns:xlink="http://www.w3.org/1999/xlink" x="0px" y="0px"
	 viewBox="0 0 21 21" style="enable-background:new 0 0 21 21;" xml:space="preserve">
<style type="text/css">
	.st0{fill:#1A2E59;}
</style>
<g>
	<g>
		<path class="st0" d="M20.22,0.5H1.61c-0.17,0-0.3,0.13-0.3,0.31v3.03v7.5c0,0.17,0.13,0.31,0.3,0.31c0.17,0,0.31-0.13,0.31-0.31
			v-7.2h18.01V19.9H1.91v-2.6c0-0.17-0.13-0.31-0.31-0.31c-0.17,0-0.3,0.14-0.3,0.31v2.89c0,0.17,0.13,0.31,0.3,0.31h18.61
			c0.17,0,0.31-0.13,0.31-0.31V3.84V0.81C20.53,0.63,20.39,0.5,20.22,0.5z M1.91,3.53V1.1h18.01v2.43H1.91z"/>
	</g>
	<g>
		<path class="st0" d="M18.41,2.1c-0.05,0.05-0.09,0.14-0.09,0.21c0,0.09,0.03,0.16,0.09,0.22c0.05,0.06,0.14,0.09,0.21,0.09
			c0.08,0,0.16-0.03,0.22-0.09c0.06-0.05,0.09-0.13,0.09-0.22c0-0.07-0.03-0.15-0.09-0.21C18.73,1.99,18.53,1.99,18.41,2.1z"/>
	</g>
	<g>
		<path class="st0" d="M16.96,2.02c-0.17,0-0.3,0.13-0.3,0.3c0,0.18,0.13,0.31,0.3,0.31c0.17,0,0.3-0.13,0.3-0.31
			C17.27,2.15,17.13,2.02,16.96,2.02z"/>
	</g>
	<g>
		<path class="st0" d="M15.08,2.1c-0.05,0.05-0.09,0.14-0.09,0.21c0,0.09,0.03,0.16,0.09,0.22c0.06,0.06,0.14,0.09,0.22,0.09
			s0.16-0.03,0.22-0.09c0.05-0.05,0.08-0.13,0.08-0.22c0-0.07-0.03-0.15-0.08-0.22C15.4,1.99,15.2,1.99,15.08,2.1z"/>
	</g>
	<g>
		<path class="st0" d="M6.89,8.43c0.33,0,0.61-0.27,0.61-0.6V6.6C7.5,6.27,7.22,6,6.89,6H5.67c-0.33,0-0.6,0.27-0.6,0.6v1.22
			c0,0.33,0.27,0.6,0.6,0.6H6.89z M5.67,6.6h1.21v1.22H5.67V6.6z"/>
	</g>
	<g>
		<path class="st0" d="M5.37,17.72c0,0.17,0.14,0.31,0.3,0.31h1.21c0.33,0,0.61-0.27,0.61-0.6v-1.22c0-0.33-0.28-0.6-0.61-0.6h-0.6
			c-0.17,0-0.31,0.14-0.31,0.31c0,0.16,0.14,0.31,0.31,0.31l0.6-0.01v1.22H5.67C5.51,17.43,5.37,17.56,5.37,17.72z"/>
	</g>
	<g>
		<path class="st0" d="M18.14,6h-2.42c-0.17,0-0.3,0.13-0.3,0.31c0,0.17,0.13,0.3,0.3,0.3h2.42c0.17,0,0.31-0.13,0.31-0.3
			C18.44,6.14,18.3,6,18.14,6z"/>
	</g>
	<g>
		<path class="st0" d="M13.9,6H9.35c-0.17,0-0.3,0.13-0.3,0.31c0,0.17,0.13,0.3,0.3,0.3h4.55c0.17,0,0.3-0.13,0.3-0.3
			C14.2,6.14,14.06,6,13.9,6z"/>
	</g>
	<g>
		<path class="st0" d="M12.68,8.12c0,0.17,0.13,0.31,0.31,0.31h3.33c0.17,0,0.3-0.14,0.3-0.31c0-0.16-0.14-0.3-0.3-0.3h-3.33
			C12.82,7.82,12.68,7.96,12.68,8.12z"/>
	</g>
	<g>
		<path class="st0" d="M9.35,8.43h2.12c0.17,0,0.31-0.14,0.31-0.31c0-0.16-0.14-0.3-0.31-0.3H9.35c-0.17,0-0.3,0.13-0.3,0.3
			C9.05,8.29,9.18,8.43,9.35,8.43z"/>
	</g>
	<g>
		<path class="st0" d="M18.14,10.81h-5.46c-0.17,0-0.3,0.13-0.3,0.3c0,0.17,0.13,0.31,0.3,0.31h5.46c0.17,0,0.31-0.13,0.31-0.31
			C18.44,10.94,18.3,10.81,18.14,10.81z"/>
	</g>
	<g>
		<path class="st0" d="M9.35,11.41h1.51c0.17,0,0.31-0.13,0.31-0.31c0-0.16-0.13-0.3-0.31-0.3H9.35c-0.17,0-0.3,0.13-0.3,0.3
			C9.05,11.28,9.18,11.41,9.35,11.41z"/>
	</g>
	<g>
		<path class="st0" d="M15.71,13.23c0.17,0,0.3-0.14,0.3-0.31c0-0.17-0.14-0.31-0.3-0.31H14.2c-0.17,0-0.3,0.13-0.3,0.31
			c0,0.17,0.14,0.31,0.3,0.31H15.71z"/>
	</g>
	<g>
		<path class="st0" d="M9.35,13.23h3.34c0.17,0,0.3-0.14,0.3-0.31c0-0.17-0.13-0.31-0.3-0.31H9.35c-0.17,0-0.3,0.13-0.3,0.31
			C9.05,13.1,9.18,13.23,9.35,13.23z"/>
	</g>
	<g>
		<path class="st0" d="M13.29,15.91c0,0.16,0.14,0.31,0.3,0.31h4.54c0.17,0,0.31-0.14,0.31-0.31c0-0.17-0.14-0.31-0.31-0.31h-4.54
			C13.42,15.6,13.29,15.74,13.29,15.91z"/>
	</g>
	<g>
		<path class="st0" d="M9.35,16.22h2.42c0.17,0,0.31-0.14,0.31-0.31c0-0.17-0.14-0.31-0.31-0.31H9.35c-0.17,0-0.3,0.14-0.3,0.31
			C9.05,16.07,9.18,16.22,9.35,16.22z"/>
	</g>
	<g>
		<path class="st0" d="M9.35,18.03h5.15c0.17,0,0.3-0.13,0.3-0.31c0-0.16-0.13-0.3-0.3-0.3H9.35c-0.17,0-0.3,0.13-0.3,0.3
			C9.05,17.89,9.18,18.03,9.35,18.03z"/>
	</g>
	<g>
		<path class="st0" d="M4.11,17.64c0.05,0.11,0.16,0.18,0.28,0.18c0,0,0.01,0,0.01,0c0.13-0.01,0.23-0.08,0.28-0.21l1.29-3.78h1.21
			c0.5,0,0.91-0.41,0.91-0.92V11.1c0-0.5-0.41-0.91-0.91-0.91H5.37c-0.5,0-0.91,0.41-0.91,0.91v1.22l-3.78,1.3
			c-0.12,0.04-0.2,0.14-0.2,0.27c-0.01,0.13,0.06,0.24,0.18,0.29l2.39,1.06L4.11,17.64z M5.07,11.1c0-0.16,0.13-0.3,0.3-0.3h1.82
			c0.17,0,0.3,0.13,0.3,0.3v1.81c0,0.17-0.13,0.32-0.3,0.32h-1l0.38-1.12c0.04-0.11,0.01-0.23-0.08-0.32
			c-0.08-0.08-0.2-0.11-0.31-0.07l-1.11,0.39V11.1z M5.79,12.5l-1.43,4.18l-0.8-1.79c-0.03-0.06-0.09-0.12-0.16-0.15l-1.79-0.79
			L5.79,12.5z"/>
	</g>
</g>
</svg>
